<svg width="1626" height="381" viewBox="0 0 1626 381" fill="none" xmlns="http://www.w3.org/2000/svg">
<g filter="url(#filter0_b_1_390)">
<g clip-path="url(#clip0_1_390)">
<rect width="1626" height="381" rx="20" fill="white" fill-opacity="0.7"/>
<g filter="url(#filter1_f_1_390)">
<circle cx="184.232" cy="142.232" r="226.232" fill="white"/>
</g>
<path d="M68.06 82.36C66.52 82.36 65.17 82.09 64.01 81.55C62.85 81.01 61.94 80.24 61.28 79.24C60.64 78.24 60.31 77.05 60.29 75.67H63.65C63.67 76.79 64.06 77.74 64.82 78.52C65.58 79.3 66.65 79.69 68.03 79.69C69.25 79.69 70.2 79.4 70.88 78.82C71.58 78.22 71.93 77.46 71.93 76.54C71.93 75.8 71.76 75.2 71.42 74.74C71.1 74.28 70.65 73.9 70.07 73.6C69.51 73.3 68.86 73.03 68.12 72.79C67.38 72.55 66.6 72.29 65.78 72.01C64.16 71.47 62.94 70.77 62.12 69.91C61.32 69.05 60.92 67.92 60.92 66.52C60.9 65.34 61.17 64.31 61.73 63.43C62.31 62.55 63.11 61.87 64.13 61.39C65.17 60.89 66.38 60.64 67.76 60.64C69.12 60.64 70.31 60.89 71.33 61.39C72.37 61.89 73.18 62.59 73.76 63.49C74.34 64.37 74.64 65.4 74.66 66.58H71.3C71.3 66.04 71.16 65.53 70.88 65.05C70.6 64.55 70.19 64.14 69.65 63.82C69.11 63.5 68.45 63.34 67.67 63.34C66.67 63.32 65.84 63.57 65.18 64.09C64.54 64.61 64.22 65.33 64.22 66.25C64.22 67.07 64.46 67.7 64.94 68.14C65.42 68.58 66.08 68.95 66.92 69.25C67.76 69.53 68.72 69.86 69.8 70.24C70.84 70.58 71.77 70.99 72.59 71.47C73.41 71.95 74.06 72.58 74.54 73.36C75.04 74.14 75.29 75.13 75.29 76.33C75.29 77.39 75.02 78.38 74.48 79.3C73.94 80.2 73.13 80.94 72.05 81.52C70.97 82.08 69.64 82.36 68.06 82.36ZM85.6067 82.36C84.1467 82.36 82.8467 82.04 81.7067 81.4C80.5867 80.74 79.7067 79.83 79.0667 78.67C78.4267 77.51 78.1067 76.16 78.1067 74.62C78.1067 73.06 78.4167 71.69 79.0367 70.51C79.6767 69.33 80.5567 68.41 81.6767 67.75C82.8167 67.09 84.1367 66.76 85.6367 66.76C87.0967 66.76 88.3667 67.09 89.4467 67.75C90.5267 68.39 91.3667 69.25 91.9667 70.33C92.5667 71.41 92.8667 72.6 92.8667 73.9C92.8667 74.1 92.8567 74.32 92.8367 74.56C92.8367 74.78 92.8267 75.03 92.8067 75.31H81.2267C81.3267 76.75 81.7967 77.85 82.6367 78.61C83.4967 79.35 84.4867 79.72 85.6067 79.72C86.5067 79.72 87.2567 79.52 87.8567 79.12C88.4767 78.7 88.9367 78.14 89.2367 77.44H92.4167C92.0167 78.84 91.2167 80.01 90.0167 80.95C88.8367 81.89 87.3667 82.36 85.6067 82.36ZM85.6067 69.37C84.5467 69.37 83.6067 69.69 82.7867 70.33C81.9667 70.95 81.4667 71.89 81.2867 73.15H89.6867C89.6267 71.99 89.2167 71.07 88.4567 70.39C87.6967 69.71 86.7467 69.37 85.6067 69.37ZM96.1663 82V67.12H98.9863L99.2263 69.73C99.6863 68.81 100.356 68.09 101.236 67.57C102.136 67.03 103.166 66.76 104.326 66.76C106.126 66.76 107.536 67.32 108.556 68.44C109.596 69.56 110.116 71.23 110.116 73.45V82H106.966V73.78C106.966 70.9 105.786 69.46 103.426 69.46C102.246 69.46 101.266 69.88 100.486 70.72C99.7263 71.56 99.3463 72.76 99.3463 74.32V82H96.1663ZM120.642 82.36C119.202 82.36 117.932 82.02 116.832 81.34C115.732 80.66 114.872 79.73 114.252 78.55C113.632 77.37 113.322 76.03 113.322 74.53C113.322 73.03 113.632 71.7 114.252 70.54C114.872 69.36 115.732 68.44 116.832 67.78C117.952 67.1 119.232 66.76 120.672 66.76C121.852 66.76 122.882 66.99 123.762 67.45C124.662 67.91 125.362 68.56 125.862 69.4V60.4H129.042V82H126.192L125.862 79.69C125.382 80.39 124.722 81.01 123.882 81.55C123.042 82.09 121.962 82.36 120.642 82.36ZM121.212 79.6C122.572 79.6 123.682 79.13 124.542 78.19C125.422 77.25 125.862 76.04 125.862 74.56C125.862 73.06 125.422 71.85 124.542 70.93C123.682 69.99 122.572 69.52 121.212 69.52C119.852 69.52 118.732 69.99 117.852 70.93C116.972 71.85 116.532 73.06 116.532 74.56C116.532 75.54 116.732 76.41 117.132 77.17C117.532 77.93 118.082 78.53 118.782 78.97C119.502 79.39 120.312 79.6 121.212 79.6ZM145.65 82.36C144.39 82.36 143.35 82.15 142.53 81.73C141.71 81.31 141.1 80.76 140.7 80.08C140.3 79.38 140.1 78.62 140.1 77.8C140.1 76.36 140.66 75.22 141.78 74.38C142.9 73.54 144.5 73.12 146.58 73.12H150.48V72.85C150.48 71.69 150.16 70.82 149.52 70.24C148.9 69.66 148.09 69.37 147.09 69.37C146.21 69.37 145.44 69.59 144.78 70.03C144.14 70.45 143.75 71.08 143.61 71.92H140.43C140.53 70.84 140.89 69.92 141.51 69.16C142.15 68.38 142.95 67.79 143.91 67.39C144.89 66.97 145.96 66.76 147.12 66.76C149.2 66.76 150.81 67.31 151.95 68.41C153.09 69.49 153.66 70.97 153.66 72.85V82H150.9L150.63 79.45C150.21 80.27 149.6 80.96 148.8 81.52C148 82.08 146.95 82.36 145.65 82.36ZM146.28 79.78C147.14 79.78 147.86 79.58 148.44 79.18C149.04 78.76 149.5 78.21 149.82 77.53C150.16 76.85 150.37 76.1 150.45 75.28H146.91C145.65 75.28 144.75 75.5 144.21 75.94C143.69 76.38 143.43 76.93 143.43 77.59C143.43 78.27 143.68 78.81 144.18 79.21C144.7 79.59 145.4 79.78 146.28 79.78ZM157.367 82V67.12H160.187L160.427 69.73C160.887 68.81 161.557 68.09 162.437 67.57C163.337 67.03 164.367 66.76 165.527 66.76C167.327 66.76 168.737 67.32 169.757 68.44C170.797 69.56 171.317 71.23 171.317 73.45V82H168.167V73.78C168.167 70.9 166.987 69.46 164.627 69.46C163.447 69.46 162.467 69.88 161.687 70.72C160.927 71.56 160.547 72.76 160.547 74.32V82H157.367ZM181.843 82.36C180.403 82.36 179.133 82.02 178.033 81.34C176.933 80.66 176.073 79.73 175.453 78.55C174.833 77.37 174.523 76.03 174.523 74.53C174.523 73.03 174.833 71.7 175.453 70.54C176.073 69.36 176.933 68.44 178.033 67.78C179.153 67.1 180.433 66.76 181.873 66.76C183.053 66.76 184.083 66.99 184.963 67.45C185.863 67.91 186.563 68.56 187.063 69.4V60.4H190.243V82H187.393L187.063 79.69C186.583 80.39 185.923 81.01 185.083 81.55C184.243 82.09 183.163 82.36 181.843 82.36ZM182.413 79.6C183.773 79.6 184.883 79.13 185.743 78.19C186.623 77.25 187.063 76.04 187.063 74.56C187.063 73.06 186.623 71.85 185.743 70.93C184.883 69.99 183.773 69.52 182.413 69.52C181.053 69.52 179.933 69.99 179.053 70.93C178.173 71.85 177.733 73.06 177.733 74.56C177.733 75.54 177.933 76.41 178.333 77.17C178.733 77.93 179.283 78.53 179.983 78.97C180.703 79.39 181.513 79.6 182.413 79.6ZM201.931 82V61H209.161C210.821 61 212.181 61.28 213.241 61.84C214.321 62.4 215.121 63.16 215.641 64.12C216.161 65.06 216.421 66.11 216.421 67.27C216.421 68.57 216.071 69.75 215.371 70.81C214.691 71.87 213.621 72.63 212.161 73.09L216.631 82H212.941L208.861 73.54H205.111V82H201.931ZM205.111 71.14H208.981C210.421 71.14 211.471 70.79 212.131 70.09C212.811 69.39 213.151 68.48 213.151 67.36C213.151 66.24 212.821 65.35 212.161 64.69C211.501 64.01 210.431 63.67 208.951 63.67H205.111V71.14ZM226.115 82.36C224.655 82.36 223.355 82.04 222.215 81.4C221.095 80.74 220.215 79.83 219.575 78.67C218.935 77.51 218.615 76.16 218.615 74.62C218.615 73.06 218.925 71.69 219.545 70.51C220.185 69.33 221.065 68.41 222.185 67.75C223.325 67.09 224.645 66.76 226.145 66.76C227.605 66.76 228.875 67.09 229.955 67.75C231.035 68.39 231.875 69.25 232.475 70.33C233.075 71.41 233.375 72.6 233.375 73.9C233.375 74.1 233.365 74.32 233.345 74.56C233.345 74.78 233.335 75.03 233.315 75.31H221.735C221.835 76.75 222.305 77.85 223.145 78.61C224.005 79.35 224.995 79.72 226.115 79.72C227.015 79.72 227.765 79.52 228.365 79.12C228.985 78.7 229.445 78.14 229.745 77.44H232.925C232.525 78.84 231.725 80.01 230.525 80.95C229.345 81.89 227.875 82.36 226.115 82.36ZM226.115 69.37C225.055 69.37 224.115 69.69 223.295 70.33C222.475 70.95 221.975 71.89 221.795 73.15H230.195C230.135 71.99 229.725 71.07 228.965 70.39C228.205 69.71 227.255 69.37 226.115 69.37ZM243.724 82.36C242.264 82.36 240.954 82.03 239.794 81.37C238.654 80.71 237.754 79.8 237.094 78.64C236.454 77.46 236.134 76.1 236.134 74.56C236.134 73.02 236.454 71.67 237.094 70.51C237.754 69.33 238.654 68.41 239.794 67.75C240.954 67.09 242.264 66.76 243.724 66.76C245.564 66.76 247.104 67.24 248.344 68.2C249.604 69.16 250.414 70.46 250.774 72.1H247.444C247.244 71.28 246.804 70.64 246.124 70.18C245.444 69.72 244.644 69.49 243.724 69.49C242.944 69.49 242.224 69.69 241.564 70.09C240.904 70.47 240.374 71.04 239.974 71.8C239.574 72.54 239.374 73.46 239.374 74.56C239.374 75.66 239.574 76.59 239.974 77.35C240.374 78.09 240.904 78.66 241.564 79.06C242.224 79.46 242.944 79.66 243.724 79.66C244.644 79.66 245.444 79.43 246.124 78.97C246.804 78.51 247.244 77.86 247.444 77.02H250.774C250.434 78.62 249.634 79.91 248.374 80.89C247.114 81.87 245.564 82.36 243.724 82.36ZM261.183 82.36C259.723 82.36 258.423 82.04 257.283 81.4C256.163 80.74 255.283 79.83 254.643 78.67C254.003 77.51 253.683 76.16 253.683 74.62C253.683 73.06 253.993 71.69 254.613 70.51C255.253 69.33 256.133 68.41 257.253 67.75C258.393 67.09 259.713 66.76 261.213 66.76C262.673 66.76 263.943 67.09 265.023 67.75C266.103 68.39 266.943 69.25 267.543 70.33C268.143 71.41 268.443 72.6 268.443 73.9C268.443 74.1 268.433 74.32 268.413 74.56C268.413 74.78 268.403 75.03 268.383 75.31H256.803C256.903 76.75 257.373 77.85 258.213 78.61C259.073 79.35 260.063 79.72 261.183 79.72C262.083 79.72 262.833 79.52 263.433 79.12C264.053 78.7 264.513 78.14 264.813 77.44H267.993C267.593 78.84 266.793 80.01 265.593 80.95C264.413 81.89 262.943 82.36 261.183 82.36ZM261.183 69.37C260.123 69.37 259.183 69.69 258.363 70.33C257.543 70.95 257.043 71.89 256.863 73.15H265.263C265.203 71.99 264.793 71.07 264.033 70.39C263.273 69.71 262.323 69.37 261.183 69.37ZM273.542 64.3C272.942 64.3 272.442 64.12 272.042 63.76C271.662 63.38 271.472 62.91 271.472 62.35C271.472 61.79 271.662 61.33 272.042 60.97C272.442 60.59 272.942 60.4 273.542 60.4C274.142 60.4 274.632 60.59 275.012 60.97C275.412 61.33 275.612 61.79 275.612 62.35C275.612 62.91 275.412 63.38 275.012 63.76C274.632 64.12 274.142 64.3 273.542 64.3ZM271.952 82V67.12H275.132V82H271.952ZM283.5 82L277.92 67.12H281.25L285.39 78.97L289.53 67.12H292.83L287.28 82H283.5ZM301.642 82.36C300.182 82.36 298.882 82.04 297.742 81.4C296.622 80.74 295.742 79.83 295.102 78.67C294.462 77.51 294.142 76.16 294.142 74.62C294.142 73.06 294.452 71.69 295.072 70.51C295.712 69.33 296.592 68.41 297.712 67.75C298.852 67.09 300.172 66.76 301.672 66.76C303.132 66.76 304.402 67.09 305.482 67.75C306.562 68.39 307.402 69.25 308.002 70.33C308.602 71.41 308.902 72.6 308.902 73.9C308.902 74.1 308.892 74.32 308.872 74.56C308.872 74.78 308.862 75.03 308.842 75.31H297.262C297.362 76.75 297.832 77.85 298.672 78.61C299.532 79.35 300.522 79.72 301.642 79.72C302.542 79.72 303.292 79.52 303.892 79.12C304.512 78.7 304.972 78.14 305.272 77.44H308.452C308.052 78.84 307.252 80.01 306.052 80.95C304.872 81.89 303.402 82.36 301.642 82.36ZM301.642 69.37C300.582 69.37 299.642 69.69 298.822 70.33C298.002 70.95 297.502 71.89 297.322 73.15H305.722C305.662 71.99 305.252 71.07 304.492 70.39C303.732 69.71 302.782 69.37 301.642 69.37ZM319.88 82V61H323.63L330.74 74.98L337.82 61H341.57V82H338.39V66.49L331.97 79H329.51L323.06 66.52V82H319.88ZM352.677 82.36C351.257 82.36 349.977 82.04 348.837 81.4C347.717 80.74 346.827 79.83 346.167 78.67C345.507 77.49 345.177 76.12 345.177 74.56C345.177 73 345.507 71.64 346.167 70.48C346.847 69.3 347.757 68.39 348.897 67.75C350.037 67.09 351.307 66.76 352.707 66.76C354.127 66.76 355.397 67.09 356.517 67.75C357.657 68.39 358.557 69.3 359.217 70.48C359.897 71.64 360.237 73 360.237 74.56C360.237 76.12 359.897 77.49 359.217 78.67C358.557 79.83 357.657 80.74 356.517 81.4C355.377 82.04 354.097 82.36 352.677 82.36ZM352.677 79.63C353.437 79.63 354.137 79.44 354.777 79.06C355.437 78.68 355.967 78.12 356.367 77.38C356.767 76.62 356.967 75.68 356.967 74.56C356.967 73.44 356.767 72.51 356.367 71.77C355.987 71.01 355.467 70.44 354.807 70.06C354.167 69.68 353.467 69.49 352.707 69.49C351.947 69.49 351.237 69.68 350.577 70.06C349.937 70.44 349.417 71.01 349.017 71.77C348.617 72.51 348.417 73.44 348.417 74.56C348.417 75.68 348.617 76.62 349.017 77.38C349.417 78.12 349.937 78.68 350.577 79.06C351.217 79.44 351.917 79.63 352.677 79.63ZM363.676 82V67.12H366.496L366.736 69.73C367.196 68.81 367.866 68.09 368.746 67.57C369.646 67.03 370.676 66.76 371.836 66.76C373.636 66.76 375.046 67.32 376.066 68.44C377.106 69.56 377.626 71.23 377.626 73.45V82H374.476V73.78C374.476 70.9 373.296 69.46 370.936 69.46C369.756 69.46 368.776 69.88 367.996 70.72C367.236 71.56 366.856 72.76 366.856 74.32V82H363.676ZM388.331 82.36C386.871 82.36 385.571 82.04 384.431 81.4C383.311 80.74 382.431 79.83 381.791 78.67C381.151 77.51 380.831 76.16 380.831 74.62C380.831 73.06 381.141 71.69 381.761 70.51C382.401 69.33 383.281 68.41 384.401 67.75C385.541 67.09 386.861 66.76 388.361 66.76C389.821 66.76 391.091 67.09 392.171 67.75C393.251 68.39 394.091 69.25 394.691 70.33C395.291 71.41 395.591 72.6 395.591 73.9C395.591 74.1 395.581 74.32 395.561 74.56C395.561 74.78 395.551 75.03 395.531 75.31H383.951C384.051 76.75 384.521 77.85 385.361 78.61C386.221 79.35 387.211 79.72 388.331 79.72C389.231 79.72 389.981 79.52 390.581 79.12C391.201 78.7 391.661 78.14 391.961 77.44H395.141C394.741 78.84 393.941 80.01 392.741 80.95C391.561 81.89 390.091 82.36 388.331 82.36ZM388.331 69.37C387.271 69.37 386.331 69.69 385.511 70.33C384.691 70.95 384.191 71.89 384.011 73.15H392.411C392.351 71.99 391.941 71.07 391.181 70.39C390.421 69.71 389.471 69.37 388.331 69.37ZM399.957 88.6L403.527 80.77H402.657L396.777 67.12H400.227L404.787 78.13L409.557 67.12H412.917L403.317 88.6H399.957ZM423.84 82V69.79H421.71V67.12H423.84V64.96C423.84 63.34 424.24 62.18 425.04 61.48C425.86 60.76 427.01 60.4 428.49 60.4H430.05V63.1H428.97C428.27 63.1 427.77 63.25 427.47 63.55C427.17 63.83 427.02 64.31 427.02 64.99V67.12H430.44V69.79H427.02V82H423.84ZM433.461 82V67.12H436.311L436.581 69.94C437.101 68.96 437.821 68.19 438.741 67.63C439.681 67.05 440.811 66.76 442.131 66.76V70.09H441.261C440.381 70.09 439.591 70.24 438.891 70.54C438.211 70.82 437.661 71.31 437.241 72.01C436.841 72.69 436.641 73.64 436.641 74.86V82H433.461ZM451.408 82.36C449.988 82.36 448.708 82.04 447.568 81.4C446.448 80.74 445.558 79.83 444.898 78.67C444.238 77.49 443.908 76.12 443.908 74.56C443.908 73 444.238 71.64 444.898 70.48C445.578 69.3 446.488 68.39 447.628 67.75C448.768 67.09 450.038 66.76 451.438 66.76C452.858 66.76 454.128 67.09 455.248 67.75C456.388 68.39 457.288 69.3 457.948 70.48C458.628 71.64 458.967 73 458.967 74.56C458.967 76.12 458.628 77.49 457.948 78.67C457.288 79.83 456.388 80.74 455.248 81.4C454.108 82.04 452.828 82.36 451.408 82.36ZM451.408 79.63C452.168 79.63 452.868 79.44 453.508 79.06C454.168 78.68 454.698 78.12 455.098 77.38C455.498 76.62 455.698 75.68 455.698 74.56C455.698 73.44 455.498 72.51 455.098 71.77C454.718 71.01 454.198 70.44 453.538 70.06C452.898 69.68 452.198 69.49 451.438 69.49C450.678 69.49 449.968 69.68 449.308 70.06C448.668 70.44 448.148 71.01 447.748 71.77C447.348 72.51 447.148 73.44 447.148 74.56C447.148 75.68 447.348 76.62 447.748 77.38C448.148 78.12 448.668 78.68 449.308 79.06C449.948 79.44 450.648 79.63 451.408 79.63ZM462.406 82V67.12H465.226L465.496 69.22C465.976 68.46 466.606 67.86 467.386 67.42C468.186 66.98 469.106 66.76 470.146 66.76C472.506 66.76 474.146 67.69 475.066 69.55C475.606 68.69 476.326 68.01 477.226 67.51C478.146 67.01 479.136 66.76 480.196 66.76C482.056 66.76 483.516 67.32 484.576 68.44C485.636 69.56 486.166 71.23 486.166 73.45V82H482.986V73.78C482.986 70.9 481.886 69.46 479.686 69.46C478.566 69.46 477.646 69.88 476.926 70.72C476.226 71.56 475.876 72.76 475.876 74.32V82H472.696V73.78C472.696 70.9 471.586 69.46 469.366 69.46C468.266 69.46 467.356 69.88 466.636 70.72C465.936 71.56 465.586 72.76 465.586 74.32V82H462.406ZM502.486 82.36C501.226 82.36 500.186 82.15 499.366 81.73C498.546 81.31 497.936 80.76 497.536 80.08C497.136 79.38 496.936 78.62 496.936 77.8C496.936 76.36 497.496 75.22 498.616 74.38C499.736 73.54 501.336 73.12 503.416 73.12H507.316V72.85C507.316 71.69 506.996 70.82 506.356 70.24C505.736 69.66 504.926 69.37 503.926 69.37C503.046 69.37 502.276 69.59 501.616 70.03C500.976 70.45 500.586 71.08 500.446 71.92H497.266C497.366 70.84 497.726 69.92 498.346 69.16C498.986 68.38 499.786 67.79 500.746 67.39C501.726 66.97 502.796 66.76 503.956 66.76C506.036 66.76 507.646 67.31 508.786 68.41C509.926 69.49 510.496 70.97 510.496 72.85V82H507.736L507.466 79.45C507.046 80.27 506.436 80.96 505.636 81.52C504.836 82.08 503.786 82.36 502.486 82.36ZM503.116 79.78C503.976 79.78 504.696 79.58 505.276 79.18C505.876 78.76 506.336 78.21 506.656 77.53C506.996 76.85 507.206 76.1 507.286 75.28H503.746C502.486 75.28 501.586 75.5 501.046 75.94C500.526 76.38 500.266 76.93 500.266 77.59C500.266 78.27 500.516 78.81 501.016 79.21C501.536 79.59 502.236 79.78 503.116 79.78ZM514.203 82V60.4H517.383V82H514.203ZM521.41 82V60.4H524.59V82H521.41ZM67.97 121.36C66.55 121.36 65.27 121.04 64.13 120.4C63.01 119.74 62.12 118.83 61.46 117.67C60.8 116.49 60.47 115.12 60.47 113.56C60.47 112 60.8 110.64 61.46 109.48C62.14 108.3 63.05 107.39 64.19 106.75C65.33 106.09 66.6 105.76 68 105.76C69.42 105.76 70.69 106.09 71.81 106.75C72.95 107.39 73.85 108.3 74.51 109.48C75.19 110.64 75.53 112 75.53 113.56C75.53 115.12 75.19 116.49 74.51 117.67C73.85 118.83 72.95 119.74 71.81 120.4C70.67 121.04 69.39 121.36 67.97 121.36ZM67.97 118.63C68.73 118.63 69.43 118.44 70.07 118.06C70.73 117.68 71.26 117.12 71.66 116.38C72.06 115.62 72.26 114.68 72.26 113.56C72.26 112.44 72.06 111.51 71.66 110.77C71.28 110.01 70.76 109.44 70.1 109.06C69.46 108.68 68.76 108.49 68 108.49C67.24 108.49 66.53 108.68 65.87 109.06C65.23 109.44 64.71 110.01 64.31 110.77C63.91 111.51 63.71 112.44 63.71 113.56C63.71 114.68 63.91 115.62 64.31 116.38C64.71 117.12 65.23 117.68 65.87 118.06C66.51 118.44 67.21 118.63 67.97 118.63ZM82.3773 121L76.7973 106.12H80.1273L84.2673 117.97L88.4073 106.12H91.7073L86.1573 121H82.3773ZM100.519 121.36C99.0588 121.36 97.7588 121.04 96.6188 120.4C95.4988 119.74 94.6188 118.83 93.9788 117.67C93.3388 116.51 93.0188 115.16 93.0188 113.62C93.0188 112.06 93.3288 110.69 93.9488 109.51C94.5888 108.33 95.4688 107.41 96.5888 106.75C97.7288 106.09 99.0488 105.76 100.549 105.76C102.009 105.76 103.279 106.09 104.359 106.75C105.439 107.39 106.279 108.25 106.879 109.33C107.479 110.41 107.779 111.6 107.779 112.9C107.779 113.1 107.769 113.32 107.749 113.56C107.749 113.78 107.739 114.03 107.719 114.31H96.1388C96.2388 115.75 96.7088 116.85 97.5488 117.61C98.4088 118.35 99.3988 118.72 100.519 118.72C101.419 118.72 102.169 118.52 102.769 118.12C103.389 117.7 103.849 117.14 104.149 116.44H107.329C106.929 117.84 106.129 119.01 104.929 119.95C103.749 120.89 102.279 121.36 100.519 121.36ZM100.519 108.37C99.4588 108.37 98.5188 108.69 97.6988 109.33C96.8788 109.95 96.3788 110.89 96.1988 112.15H104.599C104.539 110.99 104.129 110.07 103.369 109.39C102.609 108.71 101.659 108.37 100.519 108.37ZM111.078 121V106.12H113.928L114.198 108.94C114.718 107.96 115.438 107.19 116.358 106.63C117.298 106.05 118.428 105.76 119.748 105.76V109.09H118.878C117.998 109.09 117.208 109.24 116.508 109.54C115.828 109.82 115.278 110.31 114.858 111.01C114.458 111.69 114.258 112.64 114.258 113.86V121H111.078ZM133.003 121L128.623 106.12H131.803L134.683 117.34L137.923 106.12H141.463L144.703 117.34L147.583 106.12H150.763L146.383 121H143.113L139.693 109.3L136.273 121H133.003ZM155.183 103.3C154.583 103.3 154.083 103.12 153.683 102.76C153.303 102.38 153.113 101.91 153.113 101.35C153.113 100.79 153.303 100.33 153.683 99.97C154.083 99.59 154.583 99.4 155.183 99.4C155.783 99.4 156.273 99.59 156.653 99.97C157.053 100.33 157.253 100.79 157.253 101.35C157.253 101.91 157.053 102.38 156.653 102.76C156.273 103.12 155.783 103.3 155.183 103.3ZM153.593 121V106.12H156.773V121H153.593ZM167.211 121C165.751 121 164.591 120.65 163.731 119.95C162.871 119.23 162.441 117.96 162.441 116.14V108.79H159.891V106.12H162.441L162.831 102.34H165.621V106.12H169.821V108.79H165.621V116.14C165.621 116.96 165.791 117.53 166.131 117.85C166.491 118.15 167.101 118.3 167.961 118.3H169.671V121H167.211ZM173.1 121V99.4H176.28V108.52C176.78 107.66 177.47 106.99 178.35 106.51C179.25 106.01 180.24 105.76 181.32 105.76C183.1 105.76 184.5 106.32 185.52 107.44C186.54 108.56 187.05 110.23 187.05 112.45V121H183.9V112.78C183.9 109.9 182.75 108.46 180.45 108.46C179.25 108.46 178.25 108.88 177.45 109.72C176.67 110.56 176.28 111.76 176.28 113.32V121H173.1ZM205.314 121.36C203.854 121.36 202.554 121.04 201.414 120.4C200.294 119.74 199.414 118.83 198.774 117.67C198.134 116.51 197.814 115.16 197.814 113.62C197.814 112.06 198.124 110.69 198.744 109.51C199.384 108.33 200.264 107.41 201.384 106.75C202.524 106.09 203.844 105.76 205.344 105.76C206.804 105.76 208.074 106.09 209.154 106.75C210.234 107.39 211.074 108.25 211.674 109.33C212.274 110.41 212.574 111.6 212.574 112.9C212.574 113.1 212.564 113.32 212.544 113.56C212.544 113.78 212.534 114.03 212.514 114.31H200.934C201.034 115.75 201.504 116.85 202.344 117.61C203.204 118.35 204.194 118.72 205.314 118.72C206.214 118.72 206.964 118.52 207.564 118.12C208.184 117.7 208.644 117.14 208.944 116.44H212.124C211.724 117.84 210.924 119.01 209.724 119.95C208.544 120.89 207.074 121.36 205.314 121.36ZM205.314 108.37C204.254 108.37 203.314 108.69 202.494 109.33C201.674 109.95 201.174 110.89 200.994 112.15H209.394C209.334 110.99 208.924 110.07 208.164 109.39C207.404 108.71 206.454 108.37 205.314 108.37ZM220.913 121.36C219.653 121.36 218.613 121.15 217.793 120.73C216.973 120.31 216.363 119.76 215.963 119.08C215.563 118.38 215.363 117.62 215.363 116.8C215.363 115.36 215.923 114.22 217.043 113.38C218.163 112.54 219.763 112.12 221.843 112.12H225.743V111.85C225.743 110.69 225.423 109.82 224.783 109.24C224.163 108.66 223.353 108.37 222.353 108.37C221.473 108.37 220.703 108.59 220.043 109.03C219.403 109.45 219.013 110.08 218.873 110.92H215.693C215.793 109.84 216.153 108.92 216.773 108.16C217.413 107.38 218.213 106.79 219.173 106.39C220.153 105.97 221.223 105.76 222.383 105.76C224.463 105.76 226.073 106.31 227.213 107.41C228.353 108.49 228.923 109.97 228.923 111.85V121H226.163L225.893 118.45C225.473 119.27 224.863 119.96 224.063 120.52C223.263 121.08 222.213 121.36 220.913 121.36ZM221.543 118.78C222.403 118.78 223.123 118.58 223.703 118.18C224.303 117.76 224.763 117.21 225.083 116.53C225.423 115.85 225.633 115.1 225.713 114.28H222.173C220.913 114.28 220.013 114.5 219.473 114.94C218.953 115.38 218.693 115.93 218.693 116.59C218.693 117.27 218.943 117.81 219.443 118.21C219.963 118.59 220.663 118.78 221.543 118.78ZM238.571 121.36C236.691 121.36 235.141 120.9 233.921 119.98C232.701 119.06 232.001 117.84 231.821 116.32H235.031C235.191 117 235.571 117.59 236.171 118.09C236.771 118.57 237.561 118.81 238.541 118.81C239.501 118.81 240.201 118.61 240.641 118.21C241.081 117.81 241.301 117.35 241.301 116.83C241.301 116.07 240.991 115.56 240.371 115.3C239.771 115.02 238.931 114.77 237.851 114.55C237.011 114.37 236.171 114.13 235.331 113.83C234.511 113.53 233.821 113.11 233.261 112.57C232.721 112.01 232.451 111.26 232.451 110.32C232.451 109.02 232.951 107.94 233.951 107.08C234.951 106.2 236.351 105.76 238.151 105.76C239.811 105.76 241.151 106.16 242.171 106.96C243.211 107.76 243.821 108.89 244.001 110.35H240.941C240.841 109.71 240.541 109.21 240.041 108.85C239.561 108.49 238.911 108.31 238.091 108.31C237.291 108.31 236.671 108.48 236.231 108.82C235.791 109.14 235.571 109.56 235.571 110.08C235.571 110.6 235.871 111.01 236.471 111.31C237.091 111.61 237.901 111.88 238.901 112.12C239.901 112.34 240.821 112.6 241.661 112.9C242.521 113.18 243.211 113.6 243.731 114.16C244.251 114.72 244.511 115.54 244.511 116.62C244.531 117.98 244.001 119.11 242.921 120.01C241.861 120.91 240.411 121.36 238.571 121.36ZM254.943 121.36C253.483 121.36 252.183 121.04 251.043 120.4C249.923 119.74 249.043 118.83 248.403 117.67C247.763 116.51 247.443 115.16 247.443 113.62C247.443 112.06 247.753 110.69 248.373 109.51C249.013 108.33 249.893 107.41 251.013 106.75C252.153 106.09 253.473 105.76 254.973 105.76C256.433 105.76 257.703 106.09 258.783 106.75C259.863 107.39 260.703 108.25 261.303 109.33C261.903 110.41 262.203 111.6 262.203 112.9C262.203 113.1 262.193 113.32 262.173 113.56C262.173 113.78 262.163 114.03 262.143 114.31H250.563C250.663 115.75 251.133 116.85 251.973 117.61C252.833 118.35 253.823 118.72 254.943 118.72C255.843 118.72 256.593 118.52 257.193 118.12C257.813 117.7 258.273 117.14 258.573 116.44H261.753C261.353 117.84 260.553 119.01 259.353 119.95C258.173 120.89 256.703 121.36 254.943 121.36ZM254.943 108.37C253.883 108.37 252.943 108.69 252.123 109.33C251.303 109.95 250.803 110.89 250.623 112.15H259.023C258.963 110.99 258.553 110.07 257.793 109.39C257.033 108.71 256.083 108.37 254.943 108.37ZM266.762 121.18C266.162 121.18 265.662 120.99 265.262 120.61C264.882 120.21 264.692 119.74 264.692 119.2C264.692 118.64 264.882 118.17 265.262 117.79C265.662 117.39 266.162 117.19 266.762 117.19C267.362 117.19 267.852 117.39 268.232 117.79C268.612 118.17 268.802 118.64 268.802 119.2C268.802 119.74 268.612 120.21 268.232 120.61C267.852 120.99 267.362 121.18 266.762 121.18Z" fill="#0F0F0F"/>
</g>
<rect x="0.5" y="0.5" width="1625" height="380" rx="19.5" stroke="url(#paint0_linear_1_390)" stroke-opacity="0.6"/>
</g>
<defs>
<filter id="filter0_b_1_390" x="-56" y="-56" width="1738" height="493" filterUnits="userSpaceOnUse" color-interpolation-filters="sRGB">
<feFlood flood-opacity="0" result="BackgroundImageFix"/>
<feGaussianBlur in="BackgroundImageFix" stdDeviation="28"/>
<feComposite in2="SourceAlpha" operator="in" result="effect1_backgroundBlur_1_390"/>
<feBlend mode="normal" in="SourceGraphic" in2="effect1_backgroundBlur_1_390" result="shape"/>
</filter>
<filter id="filter1_f_1_390" x="-554" y="-596" width="1476.46" height="1476.46" filterUnits="userSpaceOnUse" color-interpolation-filters="sRGB">
<feFlood flood-opacity="0" result="BackgroundImageFix"/>
<feBlend mode="normal" in="SourceGraphic" in2="BackgroundImageFix" result="shape"/>
<feGaussianBlur stdDeviation="256" result="effect1_foregroundBlur_1_390"/>
</filter>
<linearGradient id="paint0_linear_1_390" x1="578.481" y1="-259.773" x2="933.12" y2="305.661" gradientUnits="userSpaceOnUse">
<stop stop-color="white"/>
<stop offset="1" stop-color="white" stop-opacity="0"/>
</linearGradient>
<clipPath id="clip0_1_390">
<rect width="1626" height="381" rx="20" fill="white"/>
</clipPath>
</defs>
</svg>
